<svg xmlns="http://www.w3.org/2000/svg" viewBox="0 0 128 128">
  <defs>
    <linearGradient id="bg" x1="18" y1="14" x2="110" y2="116" gradientUnits="userSpaceOnUse">
      <stop offset="0" stop-color="#26384d"/>
      <stop offset="1" stop-color="#111315"/>
    </linearGradient>
    <linearGradient id="accent" x1="28" y1="34" x2="102" y2="92" gradientUnits="userSpaceOnUse">
      <stop offset="0" stop-color="#7aa2f7"/>
      <stop offset="1" stop-color="#56b6c2"/>
    </linearGradient>
  </defs>
  <rect x="10" y="10" width="108" height="108" rx="18" fill="url(#bg)"/>
  <rect x="22" y="26" width="84" height="76" rx="8" fill="#202124" stroke="#7aa2f7" stroke-width="4"/>
  <rect x="22" y="26" width="84" height="18" rx="8" fill="#2b2f33"/>
  <circle cx="36" cy="35" r="3" fill="#e06c75"/>
  <circle cx="47" cy="35" r="3" fill="#d19a66"/>
  <circle cx="58" cy="35" r="3" fill="#7ec699"/>
  <path d="M38 59l15 11-15 11" fill="none" stroke="#e8eaed" stroke-width="7" stroke-linecap="round" stroke-linejoin="round"/>
  <path d="M62 84h28" fill="none" stroke="url(#accent)" stroke-width="7" stroke-linecap="round"/>
  <path d="M77 57c9-9 24-3 24 10 0 14-17 22-27 11-9 7-23 3-23-10 0-14 17-22 26-11z" fill="none" stroke="#7ec699" stroke-width="5" stroke-linecap="round" stroke-linejoin="round"/>
</svg>
